<svg xmlns="http://www.w3.org/2000/svg" viewBox="0 0 32 32">
  <defs>
    <mask id="s">
      <rect width="32" height="32" fill="white"/>
      <!-- Perforations: top -->
      <circle cx="4" cy="0" r="1.8" fill="black"/>
      <circle cx="8" cy="0" r="1.8" fill="black"/>
      <circle cx="12" cy="0" r="1.8" fill="black"/>
      <circle cx="16" cy="0" r="1.8" fill="black"/>
      <circle cx="20" cy="0" r="1.8" fill="black"/>
      <circle cx="24" cy="0" r="1.8" fill="black"/>
      <circle cx="28" cy="0" r="1.8" fill="black"/>
      <!-- bottom -->
      <circle cx="4" cy="32" r="1.8" fill="black"/>
      <circle cx="8" cy="32" r="1.8" fill="black"/>
      <circle cx="12" cy="32" r="1.8" fill="black"/>
      <circle cx="16" cy="32" r="1.8" fill="black"/>
      <circle cx="20" cy="32" r="1.8" fill="black"/>
      <circle cx="24" cy="32" r="1.8" fill="black"/>
      <circle cx="28" cy="32" r="1.8" fill="black"/>
      <!-- left -->
      <circle cx="0" cy="4" r="1.8" fill="black"/>
      <circle cx="0" cy="8" r="1.8" fill="black"/>
      <circle cx="0" cy="12" r="1.8" fill="black"/>
      <circle cx="0" cy="16" r="1.8" fill="black"/>
      <circle cx="0" cy="20" r="1.8" fill="black"/>
      <circle cx="0" cy="24" r="1.8" fill="black"/>
      <circle cx="0" cy="28" r="1.8" fill="black"/>
      <!-- right -->
      <circle cx="32" cy="4" r="1.8" fill="black"/>
      <circle cx="32" cy="8" r="1.8" fill="black"/>
      <circle cx="32" cy="12" r="1.8" fill="black"/>
      <circle cx="32" cy="16" r="1.8" fill="black"/>
      <circle cx="32" cy="20" r="1.8" fill="black"/>
      <circle cx="32" cy="24" r="1.8" fill="black"/>
      <circle cx="32" cy="28" r="1.8" fill="black"/>
    </mask>
  </defs>
  <!-- Stamp body -->
  <rect width="32" height="32" fill="#f5f5f5" mask="url(#s)"/>
  <!-- Swarm three-hexagon mark, compact -->
  <polygon points="16,5 20,7.3 20,11.9 16,14.2 12,11.9 12,7.3" fill="#1a1a1a"/>
  <polygon points="10.5,12.5 14.5,14.8 14.5,19.4 10.5,21.7 6.5,19.4 6.5,14.8" fill="#1a1a1a"/>
  <polygon points="21.5,12.5 25.5,14.8 25.5,19.4 21.5,21.7 17.5,19.4 17.5,14.8" fill="#1a1a1a"/>
  <!-- Small hexagon accent -->
  <polygon points="22.5,7.5 24,8.4 24,10.1 22.5,11 21,10.1 21,8.4" fill="#1a1a1a"/>
  <!-- Value text -->
  <text x="16" y="28" text-anchor="middle" font-family="sans-serif" font-size="5" font-weight="bold" fill="#1a1a1a">BZZ</text>
</svg>
